<!--skills-->

<svg width="88" height="88" viewBox="0 0 88 88" fill="none" xmlns="http://www.w3.org/2000/svg">
    <g id="github">
        <svg width="110px" height="110px" viewBox="0 0 20 20" version="1.1" xmlns="http://www.w3.org/2000/svg" xmlns:xlink="http://www.w3.org/1999/xlink">

            <title>github [#142]</title>
            <desc>Created with Sketch.</desc>
            <defs>

            </defs>
            <g id="Page-1" stroke="none" stroke-width="1" fill="none" fill-rule="evenodd">
                <g id="Dribbble-Light-Preview" transform="translate(-140.000000, -7559.000000)" fill="#000000">
                    <g id="icons" transform="translate(56.000000, 160.000000)">
                        <path d="M94,7399 C99.523,7399 104,7403.59 104,7409.253 C104,7413.782 101.138,7417.624 97.167,7418.981 C96.66,7419.082 96.48,7418.762 96.48,7418.489 C96.48,7418.151 96.492,7417.047 96.492,7415.675 C96.492,7414.719 96.172,7414.095 95.813,7413.777 C98.04,7413.523 100.38,7412.656 100.38,7408.718 C100.38,7407.598 99.992,7406.684 99.35,7405.966 C99.454,7405.707 99.797,7404.664 99.252,7403.252 C99.252,7403.252 98.414,7402.977 96.505,7404.303 C95.706,7404.076 94.85,7403.962 94,7403.958 C93.15,7403.962 92.295,7404.076 91.497,7404.303 C89.586,7402.977 88.746,7403.252 88.746,7403.252 C88.203,7404.664 88.546,7405.707 88.649,7405.966 C88.01,7406.684 87.619,7407.598 87.619,7408.718 C87.619,7412.646 89.954,7413.526 92.175,7413.785 C91.889,7414.041 91.63,7414.493 91.54,7415.156 C90.97,7415.418 89.522,7415.871 88.63,7414.304 C88.63,7414.304 88.101,7413.319 87.097,7413.247 C87.097,7413.247 86.122,7413.234 87.029,7413.87 C87.029,7413.87 87.684,7414.185 88.139,7415.37 C88.139,7415.37 88.726,7417.2 91.508,7416.58 C91.513,7417.437 91.522,7418.245 91.522,7418.489 C91.522,7418.76 91.338,7419.077 90.839,7418.982 C86.865,7417.627 84,7413.783 84,7409.253 C84,7403.59 88.478,7399 94,7399" id="github-[#142]">

                        </path>
                    </g>
                </g>
            </g>
        </svg>
    </g>


    <g id="git">
        <svg width="120px" height="120px" viewBox="0 0 32 32" fill="none" xmlns="http://www.w3.org/2000/svg">
            <path d="M2.58536 17.4132C1.80488 16.6327 1.80488 15.3673 2.58536 14.5868L14.5868 2.58536C15.3673 1.80488 16.6327 1.80488 17.4132 2.58536L29.4146 14.5868C30.1951 15.3673 30.1951 16.6327 29.4146 17.4132L17.4132 29.4146C16.6327 30.1951 15.3673 30.1951 14.5868 29.4146L2.58536 17.4132Z" fill="#EE513B"/>
            <path d="M12.1489 5.06152L10.9336 6.27686L14.0725 9.41577C13.9455 9.68819 13.8746 9.99201 13.8746 10.3124C13.8746 11.222 14.4461 11.9981 15.2496 12.3012V19.9798C14.4461 20.2829 13.8746 21.059 13.8746 21.9686C13.8746 23.1422 14.826 24.0936 15.9996 24.0936C17.1732 24.0936 18.1246 23.1422 18.1246 21.9686C18.1246 21.144 17.6549 20.429 16.9684 20.0768V12.3117L19.9689 15.3122C19.8481 15.5791 19.7809 15.8754 19.7809 16.1874C19.7809 17.361 20.7323 18.3124 21.9059 18.3124C23.0795 18.3124 24.0309 17.361 24.0309 16.1874C24.0309 15.0138 23.0795 14.0624 21.9059 14.0624C21.6778 14.0624 21.4582 14.0983 21.2522 14.1648L18.0297 10.9423C18.0914 10.7433 18.1246 10.5317 18.1246 10.3124C18.1246 9.13878 17.1732 8.18738 15.9996 8.18738C15.7803 8.18738 15.5688 8.22061 15.3697 8.2823L12.1489 5.06152Z" fill="white"/>
        </svg>
    </g>

    <g id="react">
        <g clip-path="url(#clip0_13_2986)">
            <path d="M93.1056 32.7027C91.9031 32.2887 90.6904 31.9051 89.4687 31.5523C89.6739 30.7106 89.8628 29.8792 90.0305 29.0623C92.7838 15.6483 90.9839 4.84178 84.8361 1.28375C78.9416 -2.12722 69.3016 1.42949 59.5659 9.93342C58.6064 10.773 57.6682 11.6368 56.7521 12.524C56.1389 11.934 55.5149 11.3556 54.8803 10.7888C44.6767 1.69616 34.4493 -2.13608 28.3081 1.43215C22.4189 4.85374 20.675 15.0127 23.1538 27.7254C23.4004 28.9844 23.6788 30.237 23.9888 31.4819C22.5411 31.8947 21.1442 32.3342 19.8073 32.8019C7.84441 36.9881 0.204742 43.5483 0.204742 50.3529C0.204742 57.3808 8.40627 64.43 20.8661 68.7043C21.8763 69.0495 22.8948 69.3692 23.9209 69.6634C23.5876 71.0042 23.2918 72.354 23.0337 73.7114C20.6706 86.2035 22.516 96.1223 28.3893 99.5222C34.4555 103.033 44.637 99.4247 54.5506 90.7268C55.3545 90.0196 56.1407 89.2925 56.9084 88.546C57.9004 89.5066 58.9189 90.4393 59.9627 91.343C69.566 99.6365 79.0501 102.985 84.9177 99.5762C90.9782 96.055 92.948 85.3995 90.3907 72.4356C90.1892 71.42 89.9633 70.4094 89.7132 69.4047C90.4282 69.1921 91.13 68.9732 91.8141 68.7455C104.767 64.4384 113.195 57.4747 113.195 50.3529C113.195 43.5234 105.309 36.919 93.1056 32.7027ZM90.2962 64.1474C89.6783 64.3525 89.0445 64.5505 88.3983 64.7432C86.9683 60.1995 85.0386 55.3684 82.6769 50.3764C84.9305 45.5036 86.786 40.734 88.1759 36.22C89.3318 36.5558 90.4534 36.9097 91.5347 37.2832C101.991 40.8961 108.369 46.2372 108.369 50.3529C108.369 54.7367 101.481 60.4277 90.2962 64.1474ZM85.6557 73.3765C86.7865 79.1087 86.9476 84.2916 86.1986 88.3435C85.5259 91.9844 84.1727 94.4115 82.499 95.3839C78.9385 97.4526 71.3235 94.7637 63.111 87.6706C62.1401 86.8305 61.1927 85.9634 60.2699 85.0703C63.4539 81.5756 66.6357 77.5131 69.7412 73.0008C75.2036 72.5144 80.3641 71.7188 85.0439 70.6331C85.2694 71.5426 85.4734 72.4573 85.6557 73.3765ZM38.7257 95.0264C35.2468 96.2592 32.4759 96.2946 30.8009 95.3254C27.2369 93.2624 25.7552 85.298 27.7762 74.6151C28.0165 73.3527 28.2915 72.0972 28.6011 70.8502C33.2293 71.8779 38.3523 72.6168 43.8275 73.0624C46.9542 77.4776 50.2278 81.5358 53.5271 85.0894C52.8259 85.7703 52.1082 86.4338 51.3745 87.0793C46.9904 90.9252 42.5974 93.654 38.7257 95.0264ZM22.4277 64.1204C16.9181 62.2302 12.368 59.7738 9.24929 57.0933C6.44659 54.6848 5.032 52.2932 5.032 50.3529C5.032 46.2234 11.1657 40.9564 21.3962 37.3766C22.6378 36.9425 23.9372 36.5327 25.2856 36.1482C26.6997 40.7641 28.5544 45.5904 30.7925 50.4707C28.5252 55.4233 26.6441 60.3267 25.2163 64.997C24.2797 64.7278 23.3499 64.4355 22.4277 64.1204ZM27.891 26.7947C25.7676 15.9031 27.1777 7.68706 30.7268 5.62497C34.5067 3.42867 42.8653 6.56011 51.6755 14.4115C52.25 14.9247 52.8152 15.4482 53.3708 15.9819C50.0879 19.52 46.8443 23.548 43.7454 27.9371C38.4313 28.4315 33.3445 29.2253 28.6678 30.2889C28.3797 29.131 28.1206 27.9661 27.891 26.7951V26.7947ZM76.6301 38.8739C75.5255 36.9589 74.3798 35.0679 73.194 33.2024C76.7991 33.66 80.2533 34.2673 83.4969 35.0098C82.5233 38.1425 81.3095 41.4175 79.8808 44.7753C78.8365 42.7867 77.7527 40.8191 76.6301 38.8739ZM56.7544 19.4443C58.9806 21.8652 61.2104 24.5678 63.4036 27.5003C58.9546 27.2894 54.4982 27.2886 50.0491 27.4977C52.2444 24.5922 54.4932 21.8931 56.7544 19.4443ZM36.751 38.9071C35.6425 40.8367 34.5789 42.792 33.5613 44.7713C32.1559 41.4255 30.9532 38.1355 29.9712 34.9584C33.1949 34.2346 36.6327 33.6427 40.2149 33.1935C39.0159 35.0704 37.8609 36.9754 36.751 38.9067V38.9071ZM40.3177 67.8569C36.6169 67.4423 33.1274 66.881 29.9045 66.1767C30.902 62.9429 32.1312 59.5829 33.567 56.1653C34.5887 58.1461 35.6567 60.1026 36.77 62.033C37.9149 64.0176 39.1004 65.9614 40.3177 67.8569ZM56.8876 81.6027C54.5996 79.1255 52.3177 76.3848 50.0892 73.4372C52.2528 73.5222 54.4583 73.5656 56.7001 73.5656C59.0031 73.5656 61.2797 73.5138 63.5205 73.4137C61.3203 76.4145 59.0989 79.1592 56.8876 81.6027ZM79.9263 55.9907C81.4366 59.446 82.7095 62.7883 83.7203 65.9667C80.4444 66.7171 76.9073 67.3214 73.1804 67.7701C74.3746 65.8699 75.5311 63.9461 76.6491 61.9998C77.7858 60.0214 78.8784 58.0179 79.9263 55.9907ZM72.468 59.5794C70.7564 62.5634 68.9487 65.4909 67.0475 68.357C63.6038 68.6018 60.1524 68.7234 56.7001 68.7216C53.1837 68.7216 49.7635 68.6118 46.47 68.3974C44.5192 65.5378 42.677 62.6053 40.9471 59.6059H40.9476C39.2259 56.6225 37.6177 53.5745 36.1265 50.4685C37.6139 47.3618 39.2172 44.3124 40.933 41.3267L40.9326 41.3271C42.6477 38.3407 44.4753 35.4206 46.4113 32.5734C49.7714 32.3182 53.2172 32.1853 56.6996 32.1853H56.7001C60.1984 32.1853 63.6485 32.3195 67.0078 32.5765C68.9243 35.4195 70.7402 38.3295 72.4521 41.301C74.1736 44.2801 75.7981 47.3147 77.3231 50.3999C75.8138 53.5166 74.1944 56.5783 72.468 59.5794ZM82.4253 5.48056C86.2087 7.67067 87.6802 16.5024 85.303 28.0842C85.1512 28.8231 84.9808 29.5757 84.7954 30.339C80.1072 29.2528 75.0169 28.4452 69.6874 27.9433C66.5828 23.506 63.3656 19.4717 60.1361 15.9792C60.9825 15.1604 61.849 14.3628 62.7349 13.5871C71.0768 6.30141 78.8732 3.42468 82.4253 5.48056ZM56.7001 40.2263C62.2724 40.2263 66.7898 44.7603 66.7898 50.3529C66.7898 55.9456 62.2724 60.4795 56.7001 60.4795C51.1278 60.4795 46.6104 55.9456 46.6104 50.3529C46.6104 44.7603 51.1278 40.2263 56.7001 40.2263Z"
                  fill="#00D8FF"/>
        </g>
        <defs>
            <clipPath id="clip0_13_2986">
                <rect width="113" height="101" fill="white" transform="translate(0.200012)"/>
            </clipPath>
        </defs>
    </g>

    <g id="typeScript">
        <svg width="120px" height="120px" viewBox="0 0 32 32" xmlns="http://www.w3.org/2000/svg"><title>file_type_typescript_official</title><rect x="2" y="2" width="28" height="28" rx="1.312" style="fill:#3178c6"/><path d="M18.245,23.759v3.068a6.492,6.492,0,0,0,1.764.575,11.56,11.56,0,0,0,2.146.192,9.968,9.968,0,0,0,2.088-.211,5.11,5.11,0,0,0,1.735-.7,3.542,3.542,0,0,0,1.181-1.266,4.469,4.469,0,0,0,.186-3.394,3.409,3.409,0,0,0-.717-1.117,5.236,5.236,0,0,0-1.123-.877,12.027,12.027,0,0,0-1.477-.734q-.6-.249-1.08-.484a5.5,5.5,0,0,1-.813-.479,2.089,2.089,0,0,1-.516-.518,1.091,1.091,0,0,1-.181-.618,1.039,1.039,0,0,1,.162-.571,1.4,1.4,0,0,1,.459-.436,2.439,2.439,0,0,1,.726-.283,4.211,4.211,0,0,1,.956-.1,5.942,5.942,0,0,1,.808.058,6.292,6.292,0,0,1,.856.177,5.994,5.994,0,0,1,.836.3,4.657,4.657,0,0,1,.751.422V13.9a7.509,7.509,0,0,0-1.525-.4,12.426,12.426,0,0,0-1.9-.129,8.767,8.767,0,0,0-2.064.235,5.239,5.239,0,0,0-1.716.733,3.655,3.655,0,0,0-1.171,1.271,3.731,3.731,0,0,0-.431,1.845,3.588,3.588,0,0,0,.789,2.34,6,6,0,0,0,2.395,1.639q.63.26,1.175.509a6.458,6.458,0,0,1,.942.517,2.463,2.463,0,0,1,.626.585,1.2,1.2,0,0,1,.23.719,1.1,1.1,0,0,1-.144.552,1.269,1.269,0,0,1-.435.441,2.381,2.381,0,0,1-.726.292,4.377,4.377,0,0,1-1.018.105,5.773,5.773,0,0,1-1.969-.35A5.874,5.874,0,0,1,18.245,23.759Zm-5.154-7.638h4V13.594H5.938v2.527H9.92V27.375h3.171Z" style="fill:#ffffff;fill-rule:evenodd"/></svg>
    </g>
    <g id="styleComponents">
        <svg width="120px" height="120px" viewBox="0 0 32 32" xmlns="http://www.w3.org/2000/svg"><title>file_type_styled</title><path d="M18.05,29.6c.042-.095.148-.161.225-.241,1.175-1.232,2.36-2.453,3.519-3.7A3.2,3.2,0,0,0,22.808,23a5.925,5.925,0,0,0-.143-.624c-.316.3-.61.573-.906.848-.46.428-.918.858-1.382,1.281a1.931,1.931,0,0,1-2.148.419,1.973,1.973,0,0,1-1.29-1.75,1.04,1.04,0,0,0-.043-.146c-.353.3-.691.576-1.026.86l-6.963,5.9c-.048.041-.1.092-.145.132h9.283l-.014-.009C17.981,29.876,18.007,29.692,18.05,29.6Z" style="fill:#ffcebf"/><path d="M8.337,29.6a1.239,1.239,0,0,1,.295-.276l9.636-8.175q.986-.837,1.963-1.683a.523.523,0,0,0,.182-.224,5.364,5.364,0,0,0,.065-2.069c-.1.07-.154.1-.2.149-.789.706-1.574,1.418-2.367,2.12a1.762,1.762,0,0,1-2.048.329,1.889,1.889,0,0,1-1.08-1.807c0-.085,0-.169,0-.324-.145.106-.251.177-.35.257Q8.648,22.529,2.865,27.154c-.174.139-.382.449-.61.148s.119-.425.294-.565q6.165-4.947,12.336-9.885c.67-.537.714-.762.278-1.615l-.26.244c-.713.663-1.434,1.317-2.136,1.991a2.121,2.121,0,0,1-3.585-1.337c-.133.1-.248.173-.357.258l-6.1,4.728a1.485,1.485,0,0,1-.356.258.446.446,0,0,1-.3-.015v8.561H8.325A.365.365,0,0,1,8.337,29.6Z" style="fill:#ffcebf"/><path d="M25.237,2.423c-.17.557-.335,1.115-.484,1.678a1.688,1.688,0,0,0,.9,2.09,7.122,7.122,0,0,0,3.818.8V2.518a.73.73,0,0,1,.016-.294.666.666,0,0,1,.105-.149H25.233C25.3,2.153,25.277,2.29,25.237,2.423Z" style="fill:#ff6196"/><path d="M16.482,12.032a2.422,2.422,0,0,1-.5,1.376A22.671,22.671,0,0,1,12.256,17.2a1.442,1.442,0,0,1-1.684.2,1.393,1.393,0,0,1-.843-1.368,1.624,1.624,0,0,1,.417-.947,35.848,35.848,0,0,1,5.019-3.993.71.71,0,0,1,.829-.034A1.041,1.041,0,0,1,16.482,12.032Z" style="fill:#ff87af"/><path d="M15.284,18.093a1.437,1.437,0,0,1,.448-1.2,38.336,38.336,0,0,1,4.87-3.813c.052-.033.1-.066.157-.1a.837.837,0,0,1,1.025.035.861.861,0,0,1,.242.979,4.39,4.39,0,0,1-1.168,1.908c-1.105,1.1-2.252,2.164-3.4,3.22a1.124,1.124,0,0,1-1.364.192A1.512,1.512,0,0,1,15.284,18.093Z" style="fill:#ff87af"/><path d="M22.5,18.754c-.28.3-.568.586-.837.893a1.89,1.89,0,0,0-.2.38c.148.044.321.16.441.119.611-.205,1.207-.451,1.878-.71-.146.336-.256.646-.411.93A12.189,12.189,0,0,1,21,23.238q-.532.513-1.105.981a1.484,1.484,0,0,1-2.415-.92,1.1,1.1,0,0,1,.238-.813,22.187,22.187,0,0,1,4.623-3.823.193.193,0,0,1,.065-.013Z" style="fill:#ff87af"/><path d="M24.794,14.771l1.711-7.6,1.2.281-.619,1.881c-.578,1.75-1.163,3.5-1.727,5.252C25.249,14.909,25.105,14.969,24.794,14.771Z" style="fill:#ff6196"/><path d="M22.862,19.241c.181-.691.361-1.33.513-1.976a4.468,4.468,0,0,1,.826-1.721c.243-.319.516-.192.795-.123.258.063.323.252.334.5a2.845,2.845,0,0,1-.588,1.907A4.8,4.8,0,0,1,22.862,19.241Z" style="fill:#ff6196"/><path d="M29.993,2.894a3.623,3.623,0,0,0-.017-.668.291.291,0,0,0-.116-.151A.381.381,0,0,0,29.708,2c-.032-.006-.077.027-.12.074a.666.666,0,0,0-.105.149.73.73,0,0,0-.016.294V6.989a7.122,7.122,0,0,1-3.818-.8,1.688,1.688,0,0,1-.9-2.09c.149-.563.314-1.121.484-1.678.04-.133.063-.27,0-.348a.2.2,0,0,0-.135-.064.3.3,0,0,0-.182.064.434.434,0,0,0-.171.19c-.2.6-.376,1.206-.529,1.818a2.148,2.148,0,0,0-.046.737,2.339,2.339,0,0,0,1.542,2c.189.079.3.157.247.406-.073.316-.144.632-.216.949q-.735,3.222-1.462,6.447a.483.483,0,0,1-.121.257,3.228,3.228,0,0,0-.791.92,4.8,4.8,0,0,0-.53,1.5.981.981,0,0,1-.558.785c-.417.211-.8.484-1.263.768A12.639,12.639,0,0,0,21,17.179a1.062,1.062,0,0,1,.284-.96,4.75,4.75,0,0,0,1.258-2.194,1.294,1.294,0,0,0-1.208-1.7,1.7,1.7,0,0,0-.929.264c-.957.646-1.888,1.332-2.812,2.026-.547.412-1.062.868-1.592,1.3a.418.418,0,0,1-.059-.081.842.842,0,0,0-.059-.214c-.443-.684-.136-1.181.345-1.692A2.793,2.793,0,0,0,17,11.977a1.568,1.568,0,0,0-.327-1.026,1.459,1.459,0,0,0-.438-.363,1.337,1.337,0,0,0-1.517.162l-.279.2c-.637.456-1.282.9-1.895,1.388-.895.712-1.769,1.454-2.626,2.214-.4.353-.692.835-1.107,1.163-2.164,1.709-4.351,3.387-6.53,5.076a1.022,1.022,0,0,0-.205.161.164.164,0,0,0-.016.029c-.046.107-.085.284-.031.349a.141.141,0,0,0,.047.033.446.446,0,0,0,.3.015,1.485,1.485,0,0,0,.356-.258l6.1-4.728c.109-.085.224-.162.357-.258a2.121,2.121,0,0,0,3.585,1.337c.7-.674,1.423-1.328,2.136-1.991l.26-.244c.436.853.392,1.078-.278,1.615Q8.716,21.793,2.549,26.737c-.175.14-.521.267-.294.565s.436-.009.61-.148Q8.651,22.533,14.429,17.9c.1-.08.205-.151.35-.257,0,.155,0,.239,0,.324a1.889,1.889,0,0,0,1.08,1.807,1.762,1.762,0,0,0,2.048-.329c.793-.7,1.578-1.414,2.367-2.12.05-.045.108-.079.2-.149a5.364,5.364,0,0,1-.065,2.069.523.523,0,0,1-.182.224q-.978.845-1.963,1.683L8.632,29.328a1.239,1.239,0,0,0-.295.276.365.365,0,0,0-.012.321v0a.376.376,0,0,0,.32.063.294.294,0,0,0,.116-.065c.05-.04.1-.091.145-.132l6.963-5.9c.335-.284.673-.564,1.026-.86a1.04,1.04,0,0,1,.043.146,1.973,1.973,0,0,0,1.29,1.75,1.931,1.931,0,0,0,2.148-.419c.464-.423.922-.853,1.382-1.281.3-.275.59-.551.906-.848a5.925,5.925,0,0,1,.143.624,3.2,3.2,0,0,1-1.014,2.649c-1.159,1.248-2.344,2.469-3.519,3.7-.077.08-.183.146-.225.241s-.069.281-.019.321l.014.009a.573.573,0,0,0,.338.051.136.136,0,0,0,.081-.051c.028-.029.055-.065.082-.092.952-.984,1.909-1.963,2.854-2.954a13.982,13.982,0,0,0,1.074-1.223,3.411,3.411,0,0,0,.61-3.616.516.516,0,0,1,.074-.386c.065-.112.137-.221.211-.329a4.632,4.632,0,0,0,.587-1,7.547,7.547,0,0,1,1.339-2.4,2.792,2.792,0,0,0,.5-2.469.988.988,0,0,1,0-.489c.506-1.567,1.027-3.129,1.543-4.692q.347-1.05.69-2.094l.213-.647c.454,0,.882-.009,1.308,0,.354.01.462-.156.458-.5C29.985,5.652,29.993,4.273,29.993,2.894ZM12.256,17.2a1.442,1.442,0,0,1-1.684.2,1.393,1.393,0,0,1-.843-1.368,1.624,1.624,0,0,1,.417-.947,35.848,35.848,0,0,1,5.019-3.993.852.852,0,0,1,.326-.14.656.656,0,0,1,.238,0,.763.763,0,0,1,.265.106,1.041,1.041,0,0,1,.488.975,2.422,2.422,0,0,1-.5,1.376A22.671,22.671,0,0,1,12.256,17.2Zm5.2,1.929a1.124,1.124,0,0,1-1.364.192,1.512,1.512,0,0,1-.81-1.224,1.437,1.437,0,0,1,.448-1.2,38.336,38.336,0,0,1,4.87-3.813c.052-.033.1-.066.157-.1a.837.837,0,0,1,1.025.035.861.861,0,0,1,.242.979,4.39,4.39,0,0,1-1.168,1.908C19.753,17.008,18.606,18.069,17.458,19.125Zm5.911,1.241A12.189,12.189,0,0,1,21,23.238q-.532.513-1.105.981a1.484,1.484,0,0,1-2.415-.92,1.1,1.1,0,0,1,.238-.813,22.187,22.187,0,0,1,4.623-3.823.193.193,0,0,1,.065-.013l.1.1c-.28.3-.568.586-.837.893a1.89,1.89,0,0,0-.2.38c.148.044.321.16.441.119.483-.162.958-.35,1.467-.55l.411-.16C23.634,19.772,23.524,20.082,23.369,20.366Zm1.373-2.535a4.363,4.363,0,0,1-1.373,1.152q-.247.138-.507.258c.178-.681.356-1.312.507-1.95l.006-.026a4.468,4.468,0,0,1,.826-1.721c.243-.319.516-.192.795-.123.258.063.323.252.334.5A2.845,2.845,0,0,1,24.742,17.831Zm2.34-8.5c-.578,1.75-1.163,3.5-1.727,5.252-.106.329-.25.389-.561.191l1.483-6.593.228-1.012,1.2.281c-.082.247-.161.49-.241.731Z"/></svg>
    </g>

    <g id="storybook">
        <svg width="120px" height="120px" viewBox="0 0 32 32" xmlns="http://www.w3.org/2000/svg"><title>folder_type_story_opened</title><path d="M27.9,6H18.2l-2,4H5v4H.3L4.1,27H30V6ZM21.3,8H28l.1,2H20.3Zm4.6,6H7V12H28v9.184Z" style="fill:#db7b96"/><path d="M26.817,13.461l.093-2.267,1.921-.12.086,2.307a.151.151,0,0,1-.033.1.146.146,0,0,1-.208.024l0,0-.741-.586-.878.668a.149.149,0,0,1-.21-.027l0,0A.142.142,0,0,1,26.817,13.461Z" style="fill:#fff"/><path d="M26.91,11.194l-.093,2.267a.146.146,0,0,0,.03.1.148.148,0,0,0,.209.03h0l.877-.668.742.586a.147.147,0,0,0,.209-.017l0,0a.162.162,0,0,0,.033-.1l-.092-2.307L29.937,11A1,1,0,0,1,31,11.944v18.05A1,1,0,0,1,30,31h-.047l-13.378-.6a1,1,0,0,1-.957-.968L15,12.923a1,1,0,0,1,.939-1.041l10.97-.688Z" style="fill:#ff4785"/><path d="M24.358,18.54c0,.391,2.627.2,2.98-.071,0-2.664-1.425-4.064-4.035-4.064s-4.071,1.421-4.071,3.554c0,3.713,5,3.785,5,5.81a.8.8,0,0,1-.681.906.756.756,0,0,1-.207,0c-.8,0-1.111-.408-1.074-1.794,0-.3-3.036-.4-3.127,0-.236,3.357,1.85,4.328,4.236,4.328,2.313,0,4.127-1.237,4.127-3.476,0-3.981-5.071-3.873-5.071-5.846a.839.839,0,0,1,.759-.911.763.763,0,0,1,.185,0C23.747,16.982,24.414,17.047,24.358,18.54Z" style="fill:#fff"/></svg>
    </g>

    <g id="miu">
        <svg width="120px" height="120px" viewBox="0 -26 256 256" version="1.1" xmlns="http://www.w3.org/2000/svg" xmlns:xlink="http://www.w3.org/1999/xlink" preserveAspectRatio="xMidYMid">
            <g>
                <polygon fill="#00B0FF" points="0 110.848 0 0 96 55.424 96 92.3733333 32 55.424 32 129.322667">

                </polygon>
                <polygon fill="#0081CB" points="96 55.424 192 0 192 110.848 128 147.797333 96 129.322667 160 92.3733333 160 55.424 96 92.3733333">

                </polygon>
                <polygon fill="#00B0FF" points="96 129.322667 96 166.272 160 203.221333 160 166.272">

                </polygon>
                <path d="M160,203.221333 L256,147.797333 L256,73.8986667 L224,92.3733333 L224,129.322667 L160,166.272 L160,203.221333 Z M224,55.424 L224,18.4746667 L256,5.68434189e-14 L256,36.9493333 L224,55.424 Z" fill="#0081CB">

                </path>
            </g>
        </svg>
    </g>

    <g id="sass">
        <svg width="120px" height="120px" viewBox="0 0 32 32" xmlns="http://www.w3.org/2000/svg"><title>file_type_sass</title><path d="M26.11,17.572a5.8,5.8,0,0,0-2.537.588,5.345,5.345,0,0,1-.568-1.314,3.53,3.53,0,0,1-.051-1.1,9.811,9.811,0,0,1,.332-1.192c-.005-.051-.061-.292-.624-.3s-1.048.107-1.1.256a6.171,6.171,0,0,0-.235.834,19.686,19.686,0,0,1-1.713,3.294,3.186,3.186,0,0,1-.44-2.066,9.811,9.811,0,0,1,.332-1.192c-.005-.051-.061-.292-.624-.3s-1.048.107-1.1.256-.118.5-.235.834-1.483,3.386-1.841,4.173c-.184.4-.343.726-.455.946h0a.233.233,0,0,1-.02.041c-.1.189-.153.292-.153.292v.005c-.077.138-.159.266-.2.266a1.711,1.711,0,0,1,.01-.869c.2-1.059.69-2.705.685-2.762,0-.031.092-.317-.317-.465a.508.508,0,0,0-.578.1c-.036,0-.061.087-.061.087s.445-1.851-.849-1.851a3.855,3.855,0,0,0-2.475,1.683c-.348.189-1.089.593-1.882,1.028-.3.169-.614.338-.905.5-.02-.02-.041-.046-.061-.066C6.87,17.6,3.975,16.416,4.1,14.171c.046-.818.327-2.966,5.559-5.575,4.306-2.122,7.733-1.534,8.326-.23.849,1.862-1.836,5.319-6.285,5.82a3.351,3.351,0,0,1-2.813-.711c-.235-.256-.271-.271-.358-.22-.143.077-.051.307,0,.44a2.626,2.626,0,0,0,1.606,1.263,8.55,8.55,0,0,0,5.217-.517c2.7-1.043,4.8-3.943,4.184-6.372-.619-2.465-4.71-3.278-8.582-1.9A19.5,19.5,0,0,0,4.359,9.952c-2.133,1.995-2.47,3.728-2.332,4.455.5,2.578,4.051,4.255,5.472,5.5-.072.041-.138.077-.194.107-.711.353-3.421,1.77-4.1,3.268-.767,1.7.123,2.915.711,3.079a4.374,4.374,0,0,0,4.71-1.908A4.725,4.725,0,0,0,9.049,20.1a.107.107,0,0,0-.02-.031l.557-.327c.363-.215.721-.414,1.028-.578a6.74,6.74,0,0,0-.363,1.862,3.886,3.886,0,0,0,.834,2.7.921.921,0,0,0,.675.22c.6,0,.875-.5,1.176-1.094.368-.726.7-1.57.7-1.57s-.414,2.281.711,2.281c.409,0,.823-.532,1.008-.8v.005s.01-.015.031-.051l.066-.107v-.01c.164-.286.532-.936,1.079-2.015.706-1.391,1.386-3.13,1.386-3.13a8.888,8.888,0,0,0,.271,1.13,10.643,10.643,0,0,0,.583,1.309c-.164.23-.266.358-.266.358l.005.005c-.133.174-.276.363-.435.547a16.3,16.3,0,0,0-1.314,1.647.447.447,0,0,0,.123.6,1.116,1.116,0,0,0,.685.113,3.147,3.147,0,0,0,1.028-.235,3.45,3.45,0,0,0,.885-.465,1.98,1.98,0,0,0,.849-1.744,3.521,3.521,0,0,0-.322-1.233c.051-.072.1-.143.148-.215a23.428,23.428,0,0,0,1.534-2.649,8.888,8.888,0,0,0,.271,1.13,7.57,7.57,0,0,0,.5,1.125A4.861,4.861,0,0,0,20.965,20.8c-.322.931-.072,1.35.4,1.447a1.425,1.425,0,0,0,.747-.153,3.4,3.4,0,0,0,.946-.486,2.126,2.126,0,0,0,1.043-1.729,3.268,3.268,0,0,0-.235-1.023,5.356,5.356,0,0,1,2.716-.312c2.434.286,2.915,1.805,2.823,2.445a1.618,1.618,0,0,1-.772,1.094c-.169.107-.225.143-.21.22.02.113.1.107.245.087A1.9,1.9,0,0,0,30,20.7c.077-1.5-1.355-3.145-3.887-3.13ZM7.33,23.9c-.808.88-1.933,1.212-2.419.931-.522-.3-.317-1.6.675-2.532a12.884,12.884,0,0,1,1.9-1.417c.118-.072.292-.174.5-.3l.056-.031h0l.123-.077A3.493,3.493,0,0,1,7.33,23.9Zm5.881-4c-.281.685-.869,2.44-1.227,2.342-.307-.082-.5-1.412-.061-2.726a6.193,6.193,0,0,1,.956-1.754c.44-.491.926-.655,1.043-.455a9.062,9.062,0,0,1-.711,2.593Zm4.853,2.322c-.118.061-.23.1-.281.072-.036-.02.051-.1.051-.1s.609-.655.849-.951c.138-.174.3-.378.476-.609V20.7c0,.782-.757,1.309-1.094,1.524Zm3.744-.854c-.087-.061-.072-.266.22-.905a3.408,3.408,0,0,1,.834-1.074,1.448,1.448,0,0,1,.082.471,1.547,1.547,0,0,1-1.135,1.509Z" style="fill:#cd6799"/></svg>
    </g>

    <g id="redux">
        <svg width="120px" height="120px" viewBox="0 0 32 32" fill="none" xmlns="http://www.w3.org/2000/svg">
            <path d="M21.7868 21.556C22.8939 21.4433 23.7338 20.505 23.6956 19.3789C23.6575 18.253 22.703 17.3522 21.5577 17.3522H21.4814C20.2978 17.3897 19.3817 18.3656 19.4199 19.5291C19.4581 20.0921 19.6871 20.58 20.0307 20.9178C18.7327 23.4326 16.7475 25.2717 13.7698 26.8106C11.7464 27.8615 9.6468 28.2369 7.54715 27.9742C5.82918 27.749 4.49301 26.9984 3.65301 25.7596C2.43144 23.9205 2.31695 21.9312 3.34773 19.942C4.07312 18.5157 5.21828 17.4647 5.94367 16.9392C5.79098 16.4513 5.56187 15.6256 5.44738 15.0251C-0.0882044 18.9661 0.484491 24.2959 2.16426 26.8106C3.42402 28.6873 5.98187 29.8509 8.80691 29.8509C9.57039 29.8509 10.3339 29.7757 11.0975 29.5882C15.9841 28.6498 19.6872 25.7972 21.7868 21.556ZM28.5059 16.9018C25.6045 13.5613 21.3287 11.7222 16.4421 11.7222H15.8314C15.4878 11.0466 14.7624 10.5961 13.9607 10.5961H13.8843C12.7009 10.6337 11.7848 11.6095 11.8229 12.7731C11.8611 13.8991 12.8154 14.7999 13.9607 14.7999H14.037C14.8769 14.7624 15.6023 14.2369 15.9077 13.5237H16.5948C19.4963 13.5237 22.2449 14.3494 24.7265 15.9634C26.6352 17.202 28.0096 18.816 28.7731 20.7677C29.4221 22.3441 29.3839 23.883 28.6967 25.1967C27.6278 27.1859 25.8336 28.2744 23.4666 28.2744C21.9395 28.2744 20.4889 27.824 19.7253 27.4862C19.3054 27.8615 18.5418 28.462 18.0073 28.8375C19.649 29.5881 21.3287 30.001 22.9321 30.001C26.597 30.001 29.3076 28.0116 30.3384 26.0224C31.4454 23.8454 31.369 20.0921 28.5059 16.9018ZM9.1123 22.1939C9.15051 23.3199 10.1049 24.2206 11.2502 24.2206H11.3266C12.51 24.1832 13.4262 23.2073 13.388 22.0438C13.3499 20.9177 12.3954 20.017 11.2502 20.017H11.1739C11.0975 20.017 10.9829 20.017 10.9067 20.0544C9.3414 17.5022 8.69242 14.7248 8.92152 11.7221C9.0741 9.47006 9.83769 7.51828 11.1739 5.9043C12.2809 4.51555 14.4188 3.83996 15.8696 3.80252C19.9162 3.7274 21.634 8.68179 21.7486 10.6711C22.2449 10.7837 23.0848 11.0465 23.6575 11.2342C23.1993 5.15382 19.3817 2.00098 15.7169 2.00098C12.2809 2.00098 9.1123 4.44067 7.85242 8.04387C6.09637 12.8481 7.24164 17.4647 9.37949 21.1055C9.18871 21.3682 9.0741 21.7811 9.1123 22.194V22.1939Z" fill="#764ABC"/>
        </svg>
    </g>

    <g id="css">
        <path d="M22.3653 101.154L13.9428 7.4375H106.523L98.089 101.139L60.1765 111.562L22.3653 101.154Z"
              fill="#1572B6"/>
        <path d="M60.2328 103.597L90.8703 95.174L98.0778 15.1019H60.2328V103.597Z" fill="#33A9DC"/>
        <path d="M60.2328 49.054H75.5703L76.6278 37.2842H60.2328V25.7896H89.2953L89.0178 28.8724L86.1715 60.5487H60.2328V49.054Z"
              fill="white"/>
        <path d="M60.304 78.9045L60.2515 78.9193L47.344 75.4609L46.519 66.2942H34.8828L36.5065 84.3413L60.2478 90.8788L60.304 90.864V78.9045Z"
              fill="#EBEBEB"/>
        <path d="M74.584 60.0615L73.189 75.4534L60.2628 78.9119V90.8714L84.0228 84.3412L84.199 82.4001L86.2128 60.0615H74.584Z"
              fill="white"/>
        <path d="M60.274 25.7896V37.2842H32.2765L32.044 34.6997L31.5153 28.8724L31.2378 25.7896H60.274ZM60.2328 49.054V60.5487H47.4865L47.254 57.9642L46.729 52.1369L46.4515 49.054H60.2328Z"
              fill="#EBEBEB"/>
    </g>

    <g id="html">
        <path d="M22.9817 102.004L14.5554 7.5H107.143L98.7054 101.989L60.7929 112.5L22.9817 102.004Z" fill="#E44F26"/>
        <path d="M60.8492 104.468L91.4867 95.9738L98.6942 15.2288H60.8492V104.468Z" fill="#F1662A"/>
        <path d="M60.8492 50.2762H45.5117L44.4542 38.4075H60.8492V26.8162H31.7867L32.0642 29.9287L34.9104 61.8675H60.8492V50.2762ZM60.8492 80.3775L60.7967 80.3925L47.8892 76.9087L47.0642 67.665H35.4279L37.0517 85.86L60.7967 92.4525L60.8492 92.4375V80.3775Z"
              fill="#EBEBEB"/>
        <path d="M60.8079 50.2762V61.8675H75.0804L73.7379 76.9012L60.8079 80.3887V92.4487L84.5717 85.86L84.7442 83.9025L87.4667 53.3887L87.7517 50.2762H60.8079ZM60.8079 26.8162V38.4075H88.8054L89.0379 35.805L89.5667 29.9287L89.8442 26.8162H60.8079Z"
              fill="white"/>
    </g>

    <g id="js">
        <path d="M8.11639 7.5H113.116V112.5H8.11639V7.5Z" fill="#F5DE19"/>
        <path d="M78.6501 89.5312C79.5448 91.3485 80.9347 92.8759 82.6598 93.9375C84.3848 94.9991 86.3747 95.5515 88.4001 95.5313C92.4876 95.5313 95.1014 93.4875 95.1014 90.6562C95.1014 87.2812 92.4164 86.0738 87.9164 84.105L85.4489 83.0475C78.3239 80.0138 73.5989 76.215 73.5989 68.1825C73.5989 60.7838 79.2239 55.1475 88.0476 55.1475C90.904 54.9412 93.7579 55.5805 96.2534 56.9856C98.7488 58.3907 100.775 60.4994 102.08 63.0488L94.3664 67.98C93.864 66.716 92.9892 65.6345 91.858 64.879C90.7268 64.1236 89.3927 63.7298 88.0326 63.75C87.4392 63.6906 86.84 63.7555 86.273 63.9404C85.7061 64.1254 85.1839 64.4265 84.7397 64.8244C84.2956 65.2224 83.9392 65.7085 83.6932 66.2518C83.4473 66.7951 83.3173 67.3837 83.3114 67.98C83.3114 70.9388 85.1451 72.1388 89.3789 73.98L91.8464 75.0375C100.231 78.6338 104.971 82.2975 104.971 90.5363C104.971 99.42 97.9926 104.287 88.6214 104.287C84.97 104.52 81.3293 103.691 78.1387 101.901C74.948 100.11 72.3438 97.4342 70.6401 94.1963L78.6501 89.5312ZM43.7939 90.3863C45.3426 93.135 46.7526 95.46 50.1426 95.46C53.3826 95.46 55.4301 94.1925 55.4301 89.2612V55.71H65.2964V89.3925C65.2964 99.6075 59.2964 104.257 50.5626 104.257C47.4755 104.426 44.4095 103.657 41.7677 102.051C39.126 100.444 37.0321 98.0761 35.7614 95.2575L43.7939 90.3863Z"
              fill="black"/>
    </g>



    <!--    social network-->

    <g id="email">
        <path fill-rule="evenodd" clip-rule="evenodd"
              d="M0.13125 4.64667C0.395898 3.46865 1.04647 2.41683 1.97642 1.66349C2.90637 0.910143 4.06057 0.499919 5.25 0.5H36.75C37.9394 0.499919 39.0936 0.910143 40.0236 1.66349C40.9535 2.41683 41.6041 3.46865 41.8687 4.64667L21 17.604L0.13125 4.64667ZM0 7.692V26.636L15.2329 17.148L0 7.692ZM17.7476 18.7133L0.501375 29.452C0.927482 30.3648 1.60001 31.1358 2.44068 31.6754C3.28135 32.215 4.25558 32.501 5.25 32.5H36.75C37.7443 32.5002 38.7181 32.2136 39.5583 31.6736C40.3985 31.1335 41.0705 30.3622 41.496 29.4493L24.2498 18.7107L21 20.7293L17.7476 18.7107V18.7133ZM26.7671 17.1507L42 26.636V7.692L26.7671 17.148V17.1507Z"
              fill="#25282B"/>
    </g>

    <g id="linkedin">
        <path d="M0 3.22175C0 1.71837 1.24925 0.5 2.79062 0.5H35.2094C36.7507 0.5 38 1.71837 38 3.22175V35.7783C38 37.2816 36.7507 38.5 35.2094 38.5H2.79062C1.24925 38.5 0 37.2816 0 35.7783V3.22175ZM11.7396 32.3108V15.1514H6.03725V32.3108H11.7396ZM8.88963 12.8073C10.8775 12.8073 12.1149 11.4915 12.1149 9.84325C12.0792 8.15938 10.8799 6.87925 8.92762 6.87925C6.97538 6.87925 5.7 8.16175 5.7 9.84325C5.7 11.4915 6.93738 12.8073 8.85163 12.8073H8.88963ZM20.5461 32.3108V22.7276C20.5461 22.2146 20.5841 21.7016 20.7361 21.3359C21.147 20.3123 22.0851 19.2506 23.6621 19.2506C25.726 19.2506 26.5501 20.8229 26.5501 23.1314V32.3108H32.2525V22.4688C32.2525 17.1962 29.4405 14.7453 25.688 14.7453C22.6623 14.7453 21.3061 16.4078 20.5461 17.5786V17.638H20.5081C20.5207 17.6182 20.5334 17.5984 20.5461 17.5786V15.1514H14.8461C14.9174 16.7616 14.8461 32.3108 14.8461 32.3108H20.5461Z"
              fill="#25282B"/>
    </g>

    <g id="telegram">
        <svg fill="#000000" width="40px" height="40px" viewBox="0 0 20 20" xmlns="http://www.w3.org/2000/svg"><path d="M10,0 C15.5228475,0 20,4.4771525 20,10 C20,15.5228475 15.5228475,20 10,20 C4.4771525,20 0,15.5228475 0,10 C0,4.4771525 4.4771525,0 10,0 Z M14.4415206,6 C14.060553,6.00676048 13.476055,6.20741135 10.663148,7.36249773 C9.67796175,7.7670526 7.70897661,8.60437935 4.75619264,9.87447795 C4.27670659,10.0627254 4.02553067,10.2468857 4.00266485,10.4269588 C3.95876487,10.7726802 4.46291296,10.8803081 5.09723696,11.0838761 C5.61440201,11.2498453 6.31007997,11.4440124 6.67173438,11.4517262 C6.99978943,11.4587234 7.36593635,11.3251987 7.77017511,11.051152 C10.5290529,9.21254679 11.9531977,8.28322679 12.0426094,8.26319203 C12.1056879,8.24905787 12.1930992,8.23128593 12.2523244,8.28325656 C12.3115496,8.33522719 12.3057275,8.43364956 12.299454,8.46005377 C12.2492926,8.67117474 9.65764825,10.998457 9.50849738,11.1513987 L9.43697409,11.2233057 C8.88741493,11.7661123 8.33196049,12.1205055 9.290333,12.7440164 C10.155665,13.3069957 10.6592923,13.6661378 11.5507686,14.2430701 C12.1204738,14.6117635 12.5671299,15.0489784 13.1553348,14.9955401 C13.4259939,14.9709508 13.705567,14.7196888 13.8475521,13.9703127 C14.1831052,12.1993135 14.8426779,8.36209709 14.9951103,6.78087197 C15.0084653,6.64233621 14.9916649,6.46503787 14.9781732,6.38720805 C14.9646815,6.30937823 14.9364876,6.19848702 14.8340164,6.11639754 C14.7126597,6.01917896 14.5253109,5.99867765 14.4415206,6 Z"/></svg>
    </g>


    <g id="logo">
        <path id="Ellipse 7"
              d="M12 21.5C12 33.3741 31.0457 43 20 43C8.9543 43 0 33.3741 0 21.5C0 9.62588 8.9543 0 20 0C31.0457 0 12 9.62588 12 21.5Z"
              fill="#8773EE"/>
        <path id="Ellipse 8"
              d="M34.7162 21.5C34.7162 33.3741 15.2199 43 26.5269 43C37.8339 43 47 33.3741 47 21.5C47 9.62588 37.8339 0 26.5269 0C15.2199 0 34.7162 9.62588 34.7162 21.5Z"
              fill="#FCDA68"/>
    </g>




</svg>
